<svg width="22" height="22" viewBox="0 0 22 22" fill="none" xmlns="http://www.w3.org/2000/svg">
<g id="circles">
<path id="Vector 1" d="M9.4716 8.96277C7.73401 10.5118 7.43457 14.5646 7.43457 14.5646C7.43457 14.5646 11.4874 14.2651 13.0364 12.5276C14.4181 10.9777 14.5642 7.435 14.5642 7.435C14.5642 7.435 11.0215 7.58109 9.4716 8.96277Z" fill="#797981"/>
<path id="Vector" d="M1 7.87496C1 9.69831 1.72432 11.447 3.01363 12.7363C4.30294 14.0256 6.05161 14.7499 7.87496 14.7499C9.69831 14.7499 11.447 14.0256 12.7363 12.7363C14.0256 11.447 14.7499 9.69831 14.7499 7.87496C14.7499 6.05161 14.0256 4.30294 12.7363 3.01363C11.447 1.72432 9.69831 1 7.87496 1C6.05161 1 4.30294 1.72432 3.01363 3.01363C1.72432 4.30294 1 6.05161 1 7.87496Z" stroke="#797981" stroke-width="1.5" stroke-linecap="round" stroke-linejoin="round"/>
<path id="Vector_2" d="M7.25 14.1249C7.25 15.9483 7.97432 17.6969 9.26363 18.9862C10.5529 20.2755 12.3016 20.9999 14.125 20.9999C15.9483 20.9999 17.697 20.2755 18.9863 18.9862C20.2756 17.6969 20.9999 15.9483 20.9999 14.1249C20.9999 12.3015 20.2756 10.5529 18.9863 9.26357C17.697 7.97426 15.9483 7.24994 14.125 7.24994C12.3016 7.24994 10.5529 7.97426 9.26363 9.26357C7.97432 10.5529 7.25 12.3015 7.25 14.1249Z" stroke="#797981" stroke-width="1.5" stroke-linecap="round" stroke-linejoin="round"/>
</g>
</svg>
