<svg width="22" height="22" viewBox="0 0 22 22" fill="none" xmlns="http://www.w3.org/2000/svg">
<g id="circles">
<path id="Vector 16" d="M19.4998 18.5C14.9998 23 7.97488 20.1886 7.49982 15C7.43343 14.2749 11.5273 14.4302 12.9998 13C14.6548 11.3926 13.7118 6.99766 15.9998 7.50002C20.3573 8.45672 22.6544 15.3454 19.4998 18.5Z" fill="#1D6BF3"/>
<path id="Vector 17" d="M2.96405 3.7099C7.46405 -0.7901 14.489 2.02134 14.964 7.20988C15.0304 7.93497 10.9366 7.77972 9.46404 9.2099C7.80903 10.8173 8.75211 15.2122 6.46405 14.7099C2.10662 13.7532 -0.190506 6.86446 2.96405 3.7099Z" fill="#1D6BF3"/>
<path id="Vector" d="M1 7.87496C1 9.69831 1.72432 11.447 3.01363 12.7363C4.30294 14.0256 6.05161 14.7499 7.87496 14.7499C9.69831 14.7499 11.447 14.0256 12.7363 12.7363C14.0256 11.447 14.7499 9.69831 14.7499 7.87496C14.7499 6.05161 14.0256 4.30294 12.7363 3.01363C11.447 1.72432 9.69831 1 7.87496 1C6.05161 1 4.30294 1.72432 3.01363 3.01363C1.72432 4.30294 1 6.05161 1 7.87496Z" stroke="#1D6BF3" stroke-width="1.5" stroke-linecap="round" stroke-linejoin="round"/>
<path id="Vector_2" d="M7.25 14.1249C7.25 15.9483 7.97432 17.6969 9.26363 18.9862C10.5529 20.2755 12.3016 20.9999 14.125 20.9999C15.9483 20.9999 17.697 20.2755 18.9863 18.9862C20.2756 17.6969 20.9999 15.9483 20.9999 14.1249C20.9999 12.3015 20.2756 10.5529 18.9863 9.26357C17.697 7.97426 15.9483 7.24994 14.125 7.24994C12.3016 7.24994 10.5529 7.97426 9.26363 9.26357C7.97432 10.5529 7.25 12.3015 7.25 14.1249Z" stroke="#1D6BF3" stroke-width="1.5" stroke-linecap="round" stroke-linejoin="round"/>
</g>
</svg>
