<svg width="24" height="24" viewBox="0 0 24 24" fill="none" xmlns="http://www.w3.org/2000/svg">
<path d="M12.5174 5.3083C13.0129 4.74981 13.6154 4.2963 14.2891 3.97455C14.9629 3.6528 15.6943 3.46934 16.4401 3.43501C17.186 3.40068 17.9311 3.51617 18.6316 3.77466C19.332 4.03316 19.9736 4.42941 20.5183 4.94001C21.0631 5.45061 21.5 6.06521 21.8032 6.74749C22.1064 7.42978 22.2698 8.16592 22.2838 8.91242C22.2977 9.65893 22.1619 10.4007 21.8844 11.0938C21.6069 11.7869 21.1933 12.4174 20.668 12.948L12.4565 21.2383C12.3968 21.2987 12.3256 21.3466 12.2472 21.3793C12.1688 21.4121 12.0847 21.4289 11.9997 21.4289C11.9147 21.4289 11.8306 21.4121 11.7522 21.3793C11.6738 21.3466 11.6026 21.2987 11.5428 21.2383L3.3314 12.948C2.33539 11.9424 1.75816 10.5963 1.71631 9.1816C1.67447 7.76687 2.17113 6.38898 3.10597 5.3263C5.32426 2.80373 9.25168 2.79516 11.482 5.3083L11.9997 5.89116L12.5174 5.3083Z" fill="#1D6BF3"/>
</svg>
