<svg width="20" height="18" viewBox="0 0 20 18" fill="none" xmlns="http://www.w3.org/2000/svg">
<g id="Group">
<path id="Vector" d="M10.8196 1.57998L9.99957 2.40198L9.17557 1.57798C8.16748 0.570029 6.80028 0.00381868 5.37472 0.00391245C3.94916 0.00400622 2.58203 0.570397 1.57407 1.57848C0.566117 2.58657 -9.37565e-05 3.95378 1.16446e-08 5.37934C9.37798e-05 6.80489 0.566484 8.17203 1.57457 9.17998L9.46957 17.075C9.6102 17.2154 9.80082 17.2943 9.99957 17.2943C10.1983 17.2943 10.3889 17.2154 10.5296 17.075L18.4316 9.17798C19.4385 8.16981 20.0039 6.80315 20.0038 5.37828C20.0036 3.95341 19.4377 2.58689 18.4306 1.57898C17.9309 1.07903 17.3377 0.682418 16.6847 0.411824C16.0318 0.14123 15.3319 0.00195312 14.6251 0.00195312C13.9183 0.00195312 13.2184 0.14123 12.5654 0.411824C11.9124 0.682418 11.3192 1.08003 10.8196 1.57998ZM17.3676 8.11998L9.99957 15.485L2.63457 8.11998C2.2716 7.76086 1.98319 7.33353 1.78591 6.86258C1.58863 6.39162 1.48637 5.88632 1.48501 5.37571C1.48365 4.86511 1.58322 4.35927 1.77799 3.88727C1.97277 3.41527 2.2589 2.98642 2.61996 2.62537C2.98101 2.26431 3.40986 1.97818 3.88186 1.7834C4.35386 1.58863 4.8597 1.48906 5.3703 1.49042C5.88091 1.49178 6.38621 1.59404 6.85716 1.79132C7.32812 1.9886 7.75544 2.27701 8.11457 2.63998L9.47257 3.99698C9.54322 4.06772 9.62731 4.12362 9.71987 4.16138C9.81244 4.19915 9.91163 4.21803 10.0116 4.21692C10.1116 4.2158 10.2103 4.1947 10.302 4.15487C10.3937 4.11504 10.4765 4.05728 10.5456 3.98498L11.8796 2.63998C12.6149 1.95556 13.587 1.583 14.5914 1.60067C15.5958 1.61834 16.5542 2.02487 17.2649 2.73474C17.9757 3.44461 18.3835 4.40248 18.4024 5.40685C18.4214 6.41122 18.0511 7.3838 17.3676 8.11998Z" fill="#797981"/>
</g>
</svg>
