<svg width="24" height="24" viewBox="0 0 24 24" fill="none" xmlns="http://www.w3.org/2000/svg">
<g id="icon/user" clip-path="url(#clip0_1315_511)">
<path id="Vector" d="M20.6701 3.69333C18.4049 1.32895 15.2707 -0.00539414 11.9964 0.000630666C5.37922 -0.00770364 0.0081607 5.3498 -0.000173606 11.967C-0.00429055 15.239 1.3299 18.3703 3.69253 20.6338C3.69941 20.6407 3.70197 20.6509 3.7088 20.657C3.77818 20.7238 3.85359 20.7804 3.92388 20.8446C4.11667 21.016 4.30947 21.1934 4.51255 21.3588C4.62135 21.4445 4.73447 21.5301 4.84588 21.6089C5.03782 21.752 5.22976 21.8951 5.43023 22.0271C5.56649 22.1128 5.70702 22.1985 5.84665 22.2842C6.03171 22.3956 6.21597 22.5078 6.40705 22.6098C6.56902 22.6955 6.73435 22.7691 6.89888 22.8471C7.07882 22.9328 7.2562 23.0184 7.44041 23.0956C7.62462 23.1727 7.80973 23.2327 7.9965 23.2995C8.18326 23.3663 8.34438 23.428 8.52347 23.4829C8.7257 23.5437 8.93305 23.5908 9.1387 23.6414C9.31005 23.6833 9.47629 23.7313 9.65281 23.7656C9.88929 23.8128 10.1292 23.8427 10.3692 23.8753C10.5174 23.8959 10.6622 23.925 10.8121 23.9396C11.2046 23.9781 11.6004 23.9996 11.9997 23.9996C12.399 23.9996 12.7949 23.9781 13.1873 23.9396C13.3373 23.925 13.4821 23.8959 13.6303 23.8753C13.8702 23.8427 14.1101 23.8128 14.3466 23.7656C14.518 23.7313 14.6894 23.6799 14.8608 23.6414C15.0664 23.5908 15.2738 23.5436 15.476 23.4829C15.6551 23.428 15.8281 23.3612 16.003 23.2995C16.1778 23.2378 16.3765 23.171 16.559 23.0956C16.7415 23.0201 16.9206 22.9319 17.1006 22.8471C17.2651 22.7691 17.4305 22.6954 17.5924 22.6098C17.7835 22.5078 17.9677 22.3955 18.1528 22.2842C18.2925 22.1985 18.433 22.1205 18.5692 22.0271C18.7697 21.8952 18.9617 21.7521 19.1536 21.6089C19.265 21.5232 19.378 21.4461 19.4869 21.3588C19.69 21.1959 19.8828 21.0229 20.0756 20.8446C20.1458 20.7804 20.2212 20.7238 20.2907 20.657C20.2975 20.651 20.3001 20.6407 20.3069 20.6338C25.0853 16.0561 25.2478 8.47155 20.6701 3.69333ZM18.7442 19.7367C18.5882 19.8738 18.4271 20.004 18.2644 20.13C18.1684 20.2037 18.0724 20.2765 17.9739 20.3468C17.8188 20.4591 17.6611 20.5653 17.5009 20.6673C17.3843 20.7418 17.2653 20.8138 17.1453 20.8841C16.9944 20.9698 16.8411 21.0554 16.686 21.1411C16.5489 21.2113 16.4092 21.2774 16.2687 21.3425C16.1282 21.4076 15.9731 21.477 15.8214 21.5378C15.6697 21.5987 15.5087 21.6561 15.3501 21.7092C15.2053 21.7589 15.0605 21.8103 14.914 21.854C14.7426 21.9054 14.5635 21.9474 14.3862 21.9903C14.2473 22.0228 14.1103 22.0596 13.9697 22.0871C13.7666 22.1265 13.5593 22.1539 13.3511 22.1822C13.2329 22.1976 13.1155 22.219 12.9963 22.231C12.6673 22.2627 12.334 22.2816 11.9972 22.2816C11.6605 22.2816 11.3272 22.2628 10.9981 22.231C10.879 22.219 10.7616 22.1976 10.6433 22.1822C10.4351 22.1539 10.2278 22.1265 10.0247 22.0871C9.88417 22.0597 9.74705 22.0228 9.60828 21.9903C9.4309 21.9474 9.25437 21.9046 9.08046 21.854C8.93396 21.8103 8.78911 21.7589 8.64431 21.7092C8.48581 21.6544 8.32726 21.5986 8.17302 21.5378C8.01879 21.477 7.87314 21.4102 7.72573 21.3425C7.57832 21.2748 7.44553 21.2114 7.30846 21.1411C7.15338 21.0606 6.99999 20.9757 6.84917 20.8841C6.72923 20.8138 6.61009 20.7418 6.49356 20.6673C6.33335 20.5653 6.17565 20.4591 6.02056 20.3468C5.92201 20.2766 5.82606 20.2037 5.73007 20.13C5.56725 20.004 5.40618 19.8729 5.25024 19.7367C5.21254 19.7084 5.17824 19.6724 5.14144 19.6398C5.17975 16.725 7.05231 14.1512 9.81393 13.2176C11.1948 13.8745 12.798 13.8745 14.1788 13.2176C16.9404 14.1512 18.8129 16.7249 18.8513 19.6398C18.8153 19.6724 18.781 19.705 18.7442 19.7367ZM9.00841 6.87081C9.93618 5.22082 12.0258 4.63536 13.6758 5.56313C15.3258 6.4909 15.9113 8.58055 14.9835 10.2305C14.6757 10.778 14.2233 11.2304 13.6758 11.5382C13.6716 11.5382 13.6664 11.5382 13.6613 11.5433C13.434 11.6698 13.1939 11.7715 12.9449 11.8467C12.9004 11.8596 12.8592 11.8767 12.8121 11.8878C12.7264 11.9101 12.6364 11.9255 12.5482 11.9409C12.382 11.97 12.2139 11.9869 12.0452 11.9915H11.9475C11.7789 11.9869 11.6107 11.97 11.4445 11.9409C11.3588 11.9255 11.268 11.9101 11.1807 11.8878C11.1352 11.8767 11.095 11.8596 11.0479 11.8467C10.7989 11.7715 10.5587 11.6699 10.3315 11.5433L10.3161 11.5382C8.6661 10.6105 8.08064 8.52081 9.00841 6.87081ZM20.3713 17.9407C19.8215 15.376 18.1326 13.2017 15.7837 12.0344C17.7039 9.94276 17.5648 6.69052 15.4731 4.77037C13.3815 2.85021 10.1292 2.98928 8.20907 5.08094C6.40394 7.04734 6.40394 10.0681 8.20907 12.0344C5.86015 13.2018 4.1713 15.376 3.62144 17.9407C0.335709 13.3125 1.42399 6.89702 6.05219 3.61129C10.6804 0.325568 17.0959 1.41385 20.3816 6.04205C21.6168 7.78186 22.2798 9.86298 22.2787 11.9967C22.2787 14.1285 21.6118 16.2069 20.3713 17.9407Z" fill="white"/>
</g>
<defs>
<clipPath id="clip0_1315_511">
<rect width="24" height="24" fill="white"/>
</clipPath>
</defs>
</svg>
